<svg width="14" height="16" viewBox="0 0 14 16" fill="none" xmlns="http://www.w3.org/2000/svg">
<path fill-rule="evenodd" clip-rule="evenodd" d="M7 0C10.866 0 14 3.20069 14 7.14894C14 10.6078 11.5948 13.4929 8.39935 14.155L7.21747 15.8834C7.19295 15.9194 7.16038 15.9488 7.12253 15.9691C7.08468 15.9894 7.04265 16 7 16C6.95735 16 6.91532 15.9894 6.87747 15.9691C6.83962 15.9488 6.80705 15.9194 6.78253 15.8834L5.60065 14.155C2.40519 13.4929 0 10.6078 0 7.14894C0 3.20069 3.13401 0 7 0Z" fill="black"/>
<path d="M9.79999 6.03687H10.1889C10.6014 6.03687 10.9971 6.20424 11.2888 6.50217C11.5805 6.8001 11.7444 7.20418 11.7444 7.62552C11.7444 8.04685 11.5805 8.45093 11.2888 8.74886C10.9971 9.04679 10.6014 9.21417 10.1889 9.21417H9.79999" stroke="white" stroke-width="0.5" stroke-linecap="round" stroke-linejoin="round"/>
<path d="M3.57776 6.03687H9.79998V9.61133C9.79998 10.0327 9.63609 10.4367 9.34437 10.7347C9.05265 11.0326 8.65698 11.2 8.24443 11.2H5.13331C4.72076 11.2 4.32509 11.0326 4.03337 10.7347C3.74165 10.4367 3.57776 10.0327 3.57776 9.61133V6.03687Z" stroke="white" stroke-width="0.5" stroke-linecap="round" stroke-linejoin="round"/>
<path d="M8.24445 3.25684V4.44833" stroke="white" stroke-width="0.5" stroke-linecap="round" stroke-linejoin="round"/>
<path d="M6.68887 3.25684V4.44833" stroke="white" stroke-width="0.5" stroke-linecap="round" stroke-linejoin="round"/>
<path d="M5.13333 3.25684V4.44833" stroke="white" stroke-width="0.5" stroke-linecap="round" stroke-linejoin="round"/>
</svg>
