<svg width="28" height="28" viewBox="0 0 28 28" fill="none" xmlns="http://www.w3.org/2000/svg">
<g filter="url(#filter0_d_300_2323)">
<rect x="4" width="20.0058" height="20.0049" rx="10.0025" fill="#EAEAEC" shape-rendering="crispEdges"/>
<path d="M18.0347 7.03382L18.0345 7.03396L15.0617 10.002L18.0339 12.9695C18.0341 12.9697 18.0342 12.9698 18.0344 12.97L18.0345 12.9701L17.8579 13.147C17.9048 13.1935 17.942 13.2488 17.9673 13.3098C17.9927 13.3707 18.0058 13.436 18.0058 13.502C18.0058 13.5681 17.9927 13.6334 17.9673 13.6943C17.942 13.7553 17.9048 13.8106 17.8579 13.857L18.0347 7.03382ZM18.0347 7.03382C18.1757 6.89279 18.2549 6.7015 18.2549 6.50205C18.2549 6.30259 18.1757 6.1113 18.0347 5.97027C17.8936 5.82923 17.7024 5.75 17.5029 5.75C17.3034 5.75 17.1122 5.82923 16.9711 5.97027L16.971 5.97041L14.0029 8.94321L11.0348 5.97041L11.0347 5.97027C10.8936 5.82923 10.7024 5.75 10.5029 5.75C10.3034 5.75 10.1122 5.82923 9.97112 5.97027C9.83009 6.11131 9.75085 6.30259 9.75085 6.50205C9.75085 6.7015 9.83009 6.89279 9.97112 7.03382L9.97126 7.03396L12.9441 10.002L9.97185 12.9695C9.97174 12.9697 9.97163 12.9698 9.97152 12.9699C9.90138 13.0395 9.8457 13.1224 9.80768 13.2136C9.7696 13.305 9.75 13.403 9.75 13.502C9.75 13.6011 9.7696 13.6991 9.80768 13.7905C9.84563 13.8816 9.90117 13.9643 9.97112 14.0338C10.0407 14.1038 10.1234 14.1593 10.2145 14.1973C10.3059 14.2353 10.4039 14.2549 10.5029 14.2549C10.6019 14.2549 10.6999 14.2353 10.7913 14.1973C10.8826 14.1592 10.9654 14.1036 11.0351 14.0334C11.0352 14.0333 11.0353 14.0332 11.0354 14.0331L14.0029 11.0609L16.9704 14.0331L17.1479 13.857L16.971 14.0337L16.9708 14.0335C17.0404 14.1036 17.1232 14.1593 17.2145 14.1973C17.3059 14.2353 17.4039 14.2549 17.5029 14.2549C17.6019 14.2549 17.6999 14.2353 17.7913 14.1973C17.8824 14.1593 17.9651 14.1038 18.0347 14.0338L18.0347 7.03382Z" fill="#6C6D6F" stroke="#6C6D6F" stroke-width="0.5"/>
</g>
<defs>
<filter id="filter0_d_300_2323" x="0" y="0" width="28.0059" height="28.0049" filterUnits="userSpaceOnUse" color-interpolation-filters="sRGB">
<feFlood flood-opacity="0" result="BackgroundImageFix"/>
<feColorMatrix in="SourceAlpha" type="matrix" values="0 0 0 0 0 0 0 0 0 0 0 0 0 0 0 0 0 0 127 0" result="hardAlpha"/>
<feOffset dy="4"/>
<feGaussianBlur stdDeviation="2"/>
<feComposite in2="hardAlpha" operator="out"/>
<feColorMatrix type="matrix" values="0 0 0 0 0 0 0 0 0 0 0 0 0 0 0 0 0 0 0.25 0"/>
<feBlend mode="normal" in2="BackgroundImageFix" result="effect1_dropShadow_300_2323"/>
<feBlend mode="normal" in="SourceGraphic" in2="effect1_dropShadow_300_2323" result="shape"/>
</filter>
</defs>
</svg>
