<svg width="50" height="50" viewBox="0 0 50 50" fill="none" xmlns="http://www.w3.org/2000/svg">
<path d="M25.0352 22.5039C24.3731 22.5039 23.7381 22.7673 23.2699 23.2361C22.8017 23.7049 22.5387 24.3408 22.5387 25.0038V32.5034C22.5387 33.1665 22.8017 33.8023 23.2699 34.2711C23.7381 34.74 24.3731 35.0033 25.0352 35.0033C25.6973 35.0033 26.3323 34.74 26.8005 34.2711C27.2686 33.8023 27.5317 33.1665 27.5317 32.5034V25.0038C27.5317 24.3408 27.2686 23.7049 26.8005 23.2361C26.3323 22.7673 25.6973 22.5039 25.0352 22.5039ZM25.0352 15.0042C24.5414 15.0042 24.0588 15.1508 23.6482 15.4255C23.2377 15.7002 22.9177 16.0906 22.7287 16.5474C22.5398 17.0042 22.4903 17.5069 22.5867 17.9918C22.683 18.4767 22.9208 18.9222 23.2699 19.2718C23.619 19.6214 24.0639 19.8595 24.5481 19.956C25.0324 20.0524 25.5344 20.0029 25.9905 19.8137C26.4467 19.6245 26.8366 19.3041 27.1109 18.893C27.3853 18.4819 27.5317 17.9985 27.5317 17.5041C27.5317 16.8411 27.2686 16.2052 26.8005 15.7364C26.3323 15.2676 25.6973 15.0042 25.0352 15.0042ZM25.0352 0.00488281C21.7568 0.00488281 18.5104 0.651498 15.4816 1.90781C12.4527 3.16412 9.70059 5.00553 7.38239 7.32689C2.70058 12.0151 0.0703668 18.3737 0.0703668 25.0038C0.0485421 30.7764 2.04457 36.3746 5.71242 40.8281L0.719452 45.8279C0.373046 46.1794 0.138386 46.6258 0.0450823 47.1108C-0.0482215 47.5957 0.00401159 48.0975 0.195191 48.5527C0.402543 49.0025 0.738685 49.3805 1.16095 49.6387C1.58321 49.8968 2.07255 50.0235 2.56685 50.0027H25.0352C31.6563 50.0027 38.0062 47.3689 42.688 42.6807C47.3698 37.9925 50 31.6339 50 25.0038C50 18.3737 47.3698 12.0151 42.688 7.32689C38.0062 2.63869 31.6563 0.00488281 25.0352 0.00488281ZM25.0352 45.0029H8.58337L10.9051 42.678C11.141 42.4465 11.3286 42.1704 11.4572 41.8657C11.5858 41.561 11.6527 41.2338 11.654 40.9031C11.6447 40.2437 11.3755 39.6147 10.9051 39.1531C7.63617 35.8834 5.60051 31.5798 5.14494 26.9757C4.68938 22.3715 5.84209 17.7516 8.40669 13.9031C10.9713 10.0545 14.7891 7.21546 19.2097 5.86956C23.6303 4.52365 28.3801 4.75418 32.65 6.52188C36.9199 8.28957 40.4456 11.4851 42.6265 15.5639C44.8074 19.6428 45.5085 24.3527 44.6104 28.8911C43.7123 33.4296 41.2706 37.5158 37.7012 40.4537C34.1318 43.3916 29.6556 44.9993 25.0352 45.0029Z" fill="black"/>
</svg>
