<svg width="20" height="20" viewBox="0 0 20 20" fill="none" xmlns="http://www.w3.org/2000/svg">
<rect x="-0.00585938" width="20.0058" height="20.0049" rx="10.0025" fill="#EAEAEC"/>
<path d="M14.0288 7.03382L14.0287 7.03396L11.0559 10.002L14.0281 12.9695C14.0282 12.9697 14.0284 12.9698 14.0285 12.97L14.0287 12.9701L13.852 13.147C13.8989 13.1935 13.9361 13.2488 13.9615 13.3098C13.9869 13.3707 13.9999 13.436 13.9999 13.502C13.9999 13.5681 13.9869 13.6334 13.9615 13.6943C13.9361 13.7553 13.8989 13.8106 13.852 13.857L14.0288 7.03382ZM14.0288 7.03382C14.1699 6.89279 14.2491 6.7015 14.2491 6.50205C14.2491 6.30259 14.1699 6.1113 14.0288 5.97027C13.8878 5.82923 13.6965 5.75 13.497 5.75C13.2976 5.75 13.1063 5.82923 12.9653 5.97027L12.9651 5.97041L9.99704 8.94321L7.02896 5.97041L7.02882 5.97027C6.88778 5.82923 6.69649 5.75 6.49704 5.75C6.29758 5.75 6.1063 5.82923 5.96526 5.97027C5.82423 6.11131 5.74499 6.30259 5.74499 6.50205C5.74499 6.7015 5.82423 6.89279 5.96526 7.03382L5.9654 7.03396L8.93821 10.002L5.96599 12.9695C5.96588 12.9697 5.96577 12.9698 5.96566 12.9699C5.89552 13.0395 5.83984 13.1224 5.80182 13.2136C5.76374 13.305 5.74414 13.403 5.74414 13.502C5.74414 13.6011 5.76374 13.6991 5.80182 13.7905C5.83977 13.8816 5.89531 13.9643 5.96526 14.0338C6.03483 14.1038 6.11753 14.1593 6.20861 14.1973C6.3 14.2353 6.39803 14.2549 6.49704 14.2549C6.59605 14.2549 6.69408 14.2353 6.78547 14.1973C6.87672 14.1592 6.95955 14.1036 7.0292 14.0334C7.02931 14.0333 7.02943 14.0332 7.02954 14.0331L9.99704 11.0609L12.9645 14.0331L13.142 13.857L12.9651 14.0337L12.965 14.0335C13.0346 14.1036 13.1174 14.1593 13.2086 14.1973C13.3 14.2353 13.398 14.2549 13.497 14.2549C13.596 14.2549 13.6941 14.2353 13.7855 14.1973C13.8766 14.1593 13.9592 14.1038 14.0288 14.0338L14.0288 7.03382Z" fill="#6C6D6F" stroke="#6C6D6F" stroke-width="0.5"/>
</svg>
