<svg width="50" height="50" viewBox="0 0 50 50" fill="none" xmlns="http://www.w3.org/2000/svg">
<rect width="50" height="50" rx="25" fill="black"/>
<path d="M19.2909 21.7101C19.3838 21.8038 19.4944 21.8782 19.6163 21.929C19.7381 21.9798 19.8688 22.0059 20.0009 22.0059C20.1329 22.0059 20.2636 21.9798 20.3854 21.929C20.5073 21.8782 20.6179 21.8038 20.7109 21.7101L24.0009 18.4101L24.0009 34.0001C24.0009 34.2653 24.1062 34.5197 24.2937 34.7072C24.4813 34.8948 24.7356 35.0001 25.0009 35.0001C25.2661 35.0001 25.5204 34.8948 25.708 34.7072C25.8955 34.5197 26.0009 34.2653 26.0009 34.0001L26.0009 18.4101L29.2909 21.7101C29.4792 21.8984 29.7346 22.0042 30.0009 22.0042C30.2672 22.0042 30.5225 21.8984 30.7109 21.7101C30.8992 21.5218 31.0049 21.2664 31.0049 21.0001C31.0049 20.7338 30.8992 20.4784 30.7109 20.2901L25.7109 15.2901C25.6158 15.1991 25.5036 15.1277 25.3809 15.0801C25.2612 15.0272 25.1317 14.9999 25.0009 14.9999C24.87 14.9999 24.7406 15.0272 24.6209 15.0801C24.4981 15.1277 24.386 15.1991 24.2909 15.2901L19.2909 20.2901C19.1971 20.3831 19.1227 20.4937 19.072 20.6155C19.0212 20.7374 18.9951 20.8681 18.9951 21.0001C18.9951 21.1321 19.0212 21.2628 19.072 21.3847C19.1227 21.5066 19.1971 21.6172 19.2909 21.7101Z" fill="white"/>
</svg>
