<svg width="14" height="16" viewBox="0 0 14 16" fill="none" xmlns="http://www.w3.org/2000/svg">
<path fill-rule="evenodd" clip-rule="evenodd" d="M7 0C10.866 0 14 3.20069 14 7.14894C14 10.6078 11.5948 13.4929 8.39935 14.155L7.21747 15.8834C7.19295 15.9194 7.16038 15.9488 7.12253 15.9691C7.08468 15.9894 7.04265 16 7 16C6.95735 16 6.91532 15.9894 6.87747 15.9691C6.83962 15.9488 6.80705 15.9194 6.78253 15.8834L5.60065 14.155C2.40519 13.4929 0 10.6078 0 7.14894C0 3.20069 3.13401 0 7 0Z" fill="black"/>
<path d="M9.8 6.03693H10.1889C10.6014 6.03693 10.9971 6.2043 11.2888 6.50223C11.5806 6.80016 11.7444 7.20424 11.7444 7.62558C11.7444 8.04692 11.5806 8.451 11.2888 8.74893C10.9971 9.04686 10.6014 9.21423 10.1889 9.21423H9.8" stroke="white" stroke-width="0.5" stroke-linecap="round" stroke-linejoin="round"/>
<path d="M3.57777 6.03693H9.8V9.61139C9.8 10.0327 9.63611 10.4368 9.34438 10.7347C9.05266 11.0327 8.657 11.2 8.24444 11.2H5.13333C4.72077 11.2 4.32511 11.0327 4.03339 10.7347C3.74166 10.4368 3.57777 10.0327 3.57777 9.61139V6.03693Z" stroke="white" stroke-width="0.5" stroke-linecap="round" stroke-linejoin="round"/>
<path d="M8.24444 3.25677V4.44826" stroke="white" stroke-width="0.5" stroke-linecap="round" stroke-linejoin="round"/>
<path d="M6.68888 3.25677V4.44826" stroke="white" stroke-width="0.5" stroke-linecap="round" stroke-linejoin="round"/>
<path d="M5.13333 3.25677V4.44826" stroke="white" stroke-width="0.5" stroke-linecap="round" stroke-linejoin="round"/>
</svg>
