<svg width="21" height="21" viewBox="0 0 21 21" fill="none" xmlns="http://www.w3.org/2000/svg">
<path d="M10.5 0.083313C9.13205 0.083313 7.7775 0.352748 6.5137 0.876235C5.24989 1.39972 4.10156 2.16701 3.13429 3.13428C1.18078 5.08779 0.0833159 7.73731 0.0833159 10.5C0.0742095 12.9053 0.907058 15.238 2.43748 17.0937L0.354149 19.1771C0.20961 19.3235 0.111697 19.5096 0.0727659 19.7116C0.0338345 19.9137 0.0556289 20.1228 0.135399 20.3125C0.221918 20.4999 0.362174 20.6574 0.538365 20.765C0.714555 20.8725 0.918734 20.9253 1.12498 20.9166H10.5C13.2627 20.9166 15.9122 19.8192 17.8657 17.8657C19.8192 15.9122 20.9167 13.2627 20.9167 10.5C20.9167 7.73731 19.8192 5.08779 17.8657 3.13428C15.9122 1.18078 13.2627 0.083313 10.5 0.083313ZM10.5 18.8333H3.6354L4.60415 17.8646C4.70257 17.7681 4.78088 17.653 4.83452 17.5261C4.88816 17.3991 4.91608 17.2628 4.91665 17.125C4.91274 16.8502 4.80041 16.5881 4.60415 16.3958C3.24018 15.0334 2.39079 13.2401 2.2007 11.3216C2.01062 9.40315 2.49159 7.47811 3.56168 5.87448C4.63177 4.27085 6.22477 3.08785 8.06927 2.52703C9.91377 1.96622 11.8957 2.06228 13.6773 2.79885C15.4589 3.53542 16.93 4.86693 17.84 6.56653C18.75 8.26613 19.0426 10.2287 18.6678 12.1198C18.2931 14.0109 17.2743 15.7136 15.7849 16.9377C14.2956 18.1619 12.4279 18.8318 10.5 18.8333Z" fill="white"/>
<path d="M10.4901 14.5665C11.0424 14.5665 11.4901 14.1188 11.4901 13.5665C11.4901 13.0142 11.0424 12.5665 10.4901 12.5665C9.93781 12.5665 9.49009 13.0142 9.49009 13.5665C9.49009 14.1188 9.93781 14.5665 10.4901 14.5665Z" fill="white"/>
<path d="M9.74986 8.25307C9.60041 8.3527 9.49142 8.49091 9.41091 8.65194C9.22567 9.02242 8.77516 9.17259 8.40468 8.98735C8.03419 8.80211 7.88402 8.3516 8.06927 7.98112C8.23875 7.64215 8.50476 7.28036 8.91781 7.00499C9.33556 6.72649 9.85885 6.56653 10.4901 6.56653C11.0437 6.56653 11.6455 6.72997 12.1276 7.09153C12.6297 7.46811 12.9901 8.05644 12.9901 8.81653C12.9901 9.26491 12.8747 9.64647 12.661 9.96693C12.4564 10.2739 12.1908 10.4799 11.9686 10.6281C11.8601 10.7004 11.7492 10.767 11.6556 10.8231L11.6494 10.8269C11.5491 10.8871 11.4669 10.9365 11.3905 10.9875C11.2378 11.0893 11.1595 11.1646 11.1142 11.2326C10.8844 11.5773 10.4188 11.6704 10.0741 11.4407C9.72944 11.211 9.63628 10.7453 9.86602 10.4007C10.0707 10.0937 10.3362 9.8876 10.5584 9.73943C10.6671 9.66696 10.7778 9.60053 10.8715 9.54432L10.8776 9.54064C10.978 9.48043 11.0602 9.43094 11.1365 9.38002C11.2893 9.27815 11.3676 9.20292 11.4129 9.13488C11.4493 9.08034 11.4901 8.99315 11.4901 8.81653C11.4901 8.57662 11.3922 8.41495 11.2276 8.29153C11.043 8.15309 10.7698 8.06653 10.4901 8.06653C10.1213 8.06653 9.89462 8.15657 9.74986 8.25307Z" fill="white"/>
</svg>
