<svg width="16" height="16" viewBox="0 0 16 16" fill="none" xmlns="http://www.w3.org/2000/svg">
<g clip-path="url(#clip0_286_1579)">
<path fill-rule="evenodd" clip-rule="evenodd" d="M9.58507 0.51936C8.64181 -0.17312 7.3582 -0.17312 6.41493 0.51936L5.48738 1.2003C5.33429 1.31269 5.1563 1.38642 4.96858 1.4152L3.8312 1.58958C2.67456 1.76691 1.76691 2.67456 1.58958 3.8312L1.4152 4.96858C1.38642 5.1563 1.31269 5.33429 1.2003 5.48738L0.51936 6.41493C-0.17312 7.3582 -0.17312 8.6418 0.51936 9.58507L1.2003 10.5126C1.31269 10.6657 1.38642 10.8437 1.4152 11.0314L1.58958 12.1688C1.76691 13.3254 2.67456 14.2331 3.8312 14.4104L4.96858 14.5848C5.1563 14.6136 5.33429 14.6873 5.48738 14.7997L6.41493 15.4806C7.3582 16.1731 8.6418 16.1731 9.58507 15.4806L10.5126 14.7997C10.6657 14.6873 10.8437 14.6136 11.0314 14.5848L12.1688 14.4104C13.3254 14.2331 14.2331 13.3254 14.4104 12.1688L14.5848 11.0314C14.6136 10.8437 14.6873 10.6657 14.7997 10.5126L15.4806 9.58507C16.1731 8.6418 16.1731 7.3582 15.4806 6.41493L14.7997 5.48738C14.6873 5.33429 14.6136 5.1563 14.5848 4.96858L14.4104 3.8312C14.2331 2.67456 13.3254 1.76691 12.1688 1.58958L11.0314 1.4152C10.8437 1.38642 10.6657 1.31269 10.5126 1.2003L9.58507 0.51936ZM7.3026 1.72851C7.71762 1.42383 8.28238 1.42383 8.6974 1.72851L9.62494 2.40945C9.9729 2.66489 10.3774 2.83246 10.8041 2.89787L11.9415 3.07225C12.4504 3.15027 12.8497 3.54962 12.9277 4.05852L13.1021 5.19589C13.1675 5.62256 13.3351 6.0271 13.5906 6.37506L14.2715 7.3026C14.5762 7.71762 14.5762 8.28238 14.2715 8.6974L13.5906 9.62494C13.3351 9.9729 13.1675 10.3774 13.1021 10.8041L12.9277 11.9415C12.8497 12.4504 12.4504 12.8497 11.9415 12.9277L10.8041 13.1021C10.3774 13.1675 9.9729 13.3351 9.62494 13.5906L8.6974 14.2715C8.28238 14.5762 7.71762 14.5762 7.3026 14.2715L6.37506 13.5906C6.0271 13.3351 5.62256 13.1675 5.19589 13.1021L4.05852 12.9277C3.54962 12.8497 3.15027 12.4504 3.07225 11.9415L2.89787 10.8041C2.83246 10.3774 2.66489 9.9729 2.40945 9.62494L1.72851 8.6974C1.42383 8.28238 1.42383 7.71762 1.72851 7.3026L2.40945 6.37505C2.66489 6.0271 2.83246 5.62256 2.89787 5.19589L3.07225 4.05852C3.15027 3.54962 3.54962 3.15027 4.05852 3.07225L5.19589 2.89787C5.62256 2.83246 6.0271 2.66489 6.37505 2.40945L7.3026 1.72851Z" fill="black"/>
<path d="M7.57634 11C7.4542 11 7.3626 10.9731 7.30153 10.9192C7.24809 10.8577 7.20229 10.7885 7.16412 10.7115L5.0229 5.35769C5.00763 5.31923 5 5.28462 5 5.25385C5 5.18462 5.0229 5.12692 5.0687 5.08077C5.12214 5.02692 5.18321 5 5.25191 5H6.17939C6.27099 5 6.33969 5.02692 6.3855 5.08077C6.4313 5.12692 6.46183 5.17308 6.4771 5.21923L8 9.26923L9.5229 5.21923C9.53817 5.17308 9.5687 5.12692 9.6145 5.08077C9.66031 5.02692 9.72901 5 9.82061 5H10.7595C10.8206 5 10.874 5.02692 10.9198 5.08077C10.9733 5.12692 11 5.18462 11 5.25385C11 5.28462 10.9962 5.31923 10.9885 5.35769L8.83588 10.7115C8.80534 10.7885 8.75954 10.8577 8.69847 10.9192C8.6374 10.9731 8.5458 11 8.42366 11H7.57634Z" fill="black"/>
</g>
<defs>
<clipPath id="clip0_286_1579">
<rect width="16" height="16" fill="white"/>
</clipPath>
</defs>
</svg>
